<svg width="74" height="80" viewBox="0 0 74 80" fill="none" xmlns="http://www.w3.org/2000/svg">
<g clip-path="url(#clip0_479_4107)">
<path d="M60.6435 77.9259V37.8227C60.6435 36.753 59.7959 35.8622 58.7313 35.8622C57.6669 35.8622 56.8192 36.7313 56.8192 37.8227V75.9876H4.14532V17.5037H37.0013C38.0447 17.5037 38.9135 16.6347 38.9135 15.5433C38.9135 14.4519 38.0658 13.5828 37.0013 13.5828L2.23244 13.582C1.1891 13.582 0.320312 14.4511 0.320312 15.5425V77.9259C0.320312 78.9957 1.16794 79.8864 2.23244 79.8864H58.7302C59.7736 79.8872 60.6431 78.9957 60.6431 77.9259L60.6435 77.9259Z" fill="#3A3A3E"/>
<path d="M71.7698 13.6063H60.6218V2.17727C60.6218 1.10755 59.7742 0.216797 58.7097 0.216797C57.6445 0.216051 56.8406 1.10749 56.8406 2.17727V13.6071L45.6934 13.6063C44.65 13.6063 43.7812 14.4754 43.7812 15.5668C43.7812 16.6582 44.6289 17.5273 45.6934 17.5273H56.8413L56.8406 28.913C56.8406 29.9827 57.6882 30.8734 58.7527 30.8734C59.8172 30.8734 60.6649 30.0044 60.6649 28.913V17.4832H71.7698C72.8131 17.4832 73.6819 16.6141 73.6819 15.5227C73.6819 14.4306 72.8124 13.6063 71.7698 13.6063Z" fill="#3A3A3E"/>
</g>
<defs>
<clipPath id="clip0_479_4107">
<rect width="74" height="80" fill="white"/>
</clipPath>
</defs>
</svg>
