<svg width="20" height="20" viewBox="0 0 20 20" fill="none" xmlns="http://www.w3.org/2000/svg">
<path d="M18.9452 6.01763C18.9357 5.30384 18.8019 4.59714 18.5497 3.92915C18.331 3.36571 17.997 2.854 17.569 2.42672C17.141 1.99944 16.6285 1.66599 16.0641 1.44767C15.4036 1.20014 14.7058 1.06629 14.0004 1.05184C13.0923 1.01131 12.8044 1 10.4991 1C8.19375 1 7.89827 1 6.99672 1.05184C6.29169 1.0664 5.59423 1.20024 4.93403 1.44767C4.36956 1.66583 3.85692 1.99923 3.42891 2.42653C3.0009 2.85383 2.66694 3.36562 2.44841 3.92915C2.19997 4.58805 2.0662 5.2845 2.05287 5.98841C2.01227 6.896 2 7.18345 2 9.48492C2 11.7864 2 12.0804 2.05287 12.9814C2.06703 13.6864 2.20013 14.3819 2.44841 15.0426C2.66731 15.6059 3.00151 16.1175 3.42967 16.5446C3.85782 16.9718 4.37051 17.305 4.93497 17.5231C5.59337 17.7806 6.29095 17.924 6.99767 17.9472C7.90676 17.9877 8.19469 18 10.5 18C12.8053 18 13.1008 18 14.0023 17.9472C14.7077 17.9334 15.4055 17.7998 16.066 17.5523C16.6302 17.3338 17.1426 17.0002 17.5706 16.573C17.9986 16.1457 18.3327 15.6341 18.5516 15.0709C18.7999 14.4111 18.933 13.7156 18.9471 13.0097C18.9877 12.1031 19 11.8156 19 9.5132C18.9981 7.21172 18.9981 6.91956 18.9452 6.01763ZM10.4934 13.8372C8.08235 13.8372 6.12916 11.8872 6.12916 9.48021C6.12916 7.07318 8.08235 5.12324 10.4934 5.12324C11.6509 5.12324 12.7609 5.58228 13.5794 6.39937C14.3978 7.21646 14.8576 8.32467 14.8576 9.48021C14.8576 10.6357 14.3978 11.744 13.5794 12.5611C12.7609 13.3781 11.6509 13.8372 10.4934 13.8372ZM15.0313 5.97805C14.8976 5.97817 14.7653 5.95198 14.6417 5.90096C14.5182 5.84995 14.406 5.77512 14.3115 5.68075C14.2169 5.58639 14.142 5.47434 14.0909 5.35102C14.0398 5.2277 14.0135 5.09553 14.0137 4.96208C14.0137 4.82872 14.04 4.69667 14.0911 4.57347C14.1422 4.45026 14.2171 4.33831 14.3116 4.24402C14.406 4.14972 14.5182 4.07492 14.6416 4.02389C14.765 3.97285 14.8973 3.94659 15.0308 3.94659C15.1644 3.94659 15.2967 3.97285 15.4201 4.02389C15.5435 4.07492 15.6557 4.14972 15.7501 4.24402C15.8446 4.33831 15.9195 4.45026 15.9706 4.57347C16.0217 4.69667 16.048 4.82872 16.048 4.96208C16.048 5.52378 15.593 5.97805 15.0313 5.97805Z" fill="white"/>
<path d="M10.5 12C11.8807 12 13 10.8807 13 9.5C13 8.11929 11.8807 7 10.5 7C9.11929 7 8 8.11929 8 9.5C8 10.8807 9.11929 12 10.5 12Z" fill="white"/>
</svg>
