<svg width="22" height="22" viewBox="0 0 22 22" fill="none" xmlns="http://www.w3.org/2000/svg">
<path d="M3.66927 18.3332C3.1651 18.3332 2.73366 18.1538 2.37494 17.7951C2.0156 17.4358 1.83594 17.004 1.83594 16.4998V5.49984C1.83594 4.99567 2.0156 4.56423 2.37494 4.2055C2.73366 3.84617 3.1651 3.6665 3.66927 3.6665H18.3359C18.8401 3.6665 19.2719 3.84617 19.6312 4.2055C19.9899 4.56423 20.1693 4.99567 20.1693 5.49984V16.4998C20.1693 17.004 19.9899 17.4358 19.6312 17.7951C19.2719 18.1538 18.8401 18.3332 18.3359 18.3332H3.66927ZM11.0026 11.7561C11.079 11.7561 11.159 11.7445 11.2428 11.7213C11.3271 11.6986 11.4075 11.6644 11.4839 11.6186L17.9693 7.56234C18.0915 7.48595 18.1832 7.39062 18.2443 7.27634C18.3054 7.16145 18.3359 7.03525 18.3359 6.89775C18.3359 6.5922 18.2061 6.36303 17.9464 6.21025C17.6866 6.05748 17.4193 6.06512 17.1443 6.23317L11.0026 10.0832L4.86094 6.23317C4.58594 6.06512 4.31858 6.06114 4.05885 6.22125C3.79913 6.38198 3.66927 6.60748 3.66927 6.89775C3.66927 7.05053 3.69983 7.18406 3.76094 7.29834C3.82205 7.41323 3.91372 7.50123 4.03594 7.56234L10.5214 11.6186C10.5977 11.6644 10.6781 11.6986 10.7624 11.7213C10.8462 11.7445 10.9262 11.7561 11.0026 11.7561Z" fill="#161618"/>
</svg>
