<svg width="21" height="27" viewBox="0 0 21 27" fill="none" xmlns="http://www.w3.org/2000/svg">
<g clip-path="url(#clip0_702_476)">
<path d="M10.5113 6.06925C9.60461 6.06925 8.71832 6.33635 7.96447 6.83679C7.21062 7.33723 6.62306 8.04852 6.2761 8.88071C5.92914 9.71291 5.83836 10.6286 6.01524 11.5121C6.19212 12.3955 6.62871 13.207 7.26981 13.844C7.91091 14.4809 8.72772 14.9147 9.61695 15.0904C10.5062 15.2661 11.4279 15.1759 12.2655 14.8312C13.1032 14.4865 13.8191 13.9028 14.3228 13.1538C14.8265 12.4049 15.0954 11.5243 15.0954 10.6236C15.0954 9.4157 14.6124 8.25728 13.7527 7.40318C12.893 6.54908 11.727 6.06925 10.5113 6.06925ZM10.5113 13.7397C9.89092 13.7397 9.28451 13.5569 8.76872 13.2145C8.25293 12.8721 7.85091 12.3855 7.61352 11.8161C7.37613 11.2467 7.31402 10.6201 7.43504 10.0157C7.55606 9.41119 7.85478 8.85595 8.29343 8.42015C8.73207 7.98435 9.29094 7.68757 9.89936 7.56733C10.5078 7.4471 11.1384 7.50881 11.7115 7.74466C12.2847 7.98051 12.7745 8.37991 13.1192 8.89235C13.4638 9.4048 13.6477 10.0073 13.6477 10.6236C13.6446 11.4491 13.3131 12.2398 12.7256 12.8235C12.1381 13.4072 11.3421 13.7365 10.5113 13.7397ZM10.5113 0.316406C7.76074 0.319578 5.12379 1.40653 3.17888 3.33881C1.23397 5.27109 0.139911 7.89092 0.136719 10.6236C0.136719 14.327 1.87385 18.2581 5.14304 21.9974C6.61729 23.6967 8.28058 25.2246 10.1011 26.5518C10.2212 26.6361 10.3642 26.6821 10.5113 26.6836C10.6617 26.6802 10.8081 26.6345 10.9335 26.5518C12.7457 25.2189 14.4044 23.6916 15.8795 21.9974C19.1607 18.2581 20.8858 14.327 20.8858 10.6236C20.8826 7.89092 19.7886 5.27109 17.8436 3.33881C15.8987 1.40653 13.2618 0.319578 10.5113 0.316406ZM10.5113 25.0656C8.70175 23.6753 1.58433 17.7667 1.58433 10.6236C1.58433 8.27138 2.52484 6.01553 4.19897 4.35228C5.87309 2.68902 8.14369 1.75462 10.5113 1.75462C12.8788 1.75462 15.1494 2.68902 16.8236 4.35228C18.4977 6.01553 19.4382 8.27138 19.4382 10.6236C19.4382 17.7667 12.3208 23.6753 10.5113 25.0656Z" fill="#DE1829"/>
</g>
<defs>
<clipPath id="clip0_702_476">
<rect width="21" height="27" fill="white"/>
</clipPath>
</defs>
</svg>
