<svg width="19" height="19" viewBox="0 0 19 19" fill="none" xmlns="http://www.w3.org/2000/svg">
<path d="M8.03361 10.8933C9.13534 12.011 10.4684 12.8738 11.9392 13.4214L13.9289 11.838C13.9879 11.7974 14.0578 11.7757 14.1294 11.7757C14.2011 11.7757 14.271 11.7974 14.33 11.838L18.0244 14.2183C18.1647 14.3026 18.2834 14.4184 18.3713 14.5565C18.4591 14.6946 18.5136 14.8512 18.5305 15.014C18.5474 15.1768 18.5262 15.3413 18.4686 15.4944C18.411 15.6476 18.3186 15.7853 18.1986 15.8967L16.4675 17.6067C16.2196 17.8516 15.9149 18.0314 15.5806 18.1299C15.2463 18.2285 14.8928 18.2427 14.5517 18.1714C11.1487 17.4685 8.01204 15.8225 5.50028 13.4214C3.04425 10.9964 1.3447 7.91077 0.607776 4.53887C0.534977 4.20302 0.550171 3.85405 0.651885 3.52579C0.753599 3.19753 0.938384 2.90111 1.18833 2.66526L2.98278 0.934151C3.09382 0.820039 3.22924 0.732527 3.3789 0.678167C3.52856 0.623808 3.68857 0.604009 3.84696 0.620255C4.00536 0.6365 4.15802 0.688368 4.29353 0.771976C4.42904 0.855583 4.54387 0.968762 4.62944 1.10304L7.08889 4.74998C7.13131 4.80725 7.15421 4.87663 7.15421 4.9479C7.15421 5.01917 7.13131 5.08855 7.08889 5.14582L5.46861 7.09332C6.031 8.53465 6.90719 9.83271 8.03361 10.8933Z" fill="white"/>
</svg>
