<svg width="35" height="61" viewBox="0 0 35 61" fill="none" xmlns="http://www.w3.org/2000/svg">
<path d="M32.19 46.8171C33.4207 46.8171 34.4144 45.8234 34.4144 44.5927V16.2084C34.4144 7.2664 26.7177 0 17.2717 0C7.82527 0 0.128906 7.28097 0.128906 16.2084V44.5774C0.128906 53.5195 7.82561 60.7859 17.2717 60.7859C19.8072 60.7859 22.2394 60.2814 24.5235 59.2731C25.6503 58.7839 26.1547 57.4638 25.6655 56.3371C25.1763 55.2103 23.8561 54.7059 22.7294 55.1951C21.0241 55.9511 19.185 56.3371 17.2724 56.3371C10.2728 56.3371 4.57879 51.0582 4.57879 44.5775L4.57812 16.2085C4.57812 9.71336 10.2729 4.44885 17.2717 4.44885C24.2714 4.44885 29.9653 9.72777 29.9653 16.2085V44.5775C29.9653 45.8089 30.9591 46.8171 32.1898 46.8171L32.19 46.8171Z" fill="white" fill-opacity="0.1"/>
</svg>
