<svg width="20" height="20" viewBox="0 0 20 20" fill="none" xmlns="http://www.w3.org/2000/svg">
<path d="M6.28983 16.9999C13.8374 16.9999 17.9648 11.2295 17.9648 6.22578C17.9648 6.06189 17.9611 5.89868 17.9532 5.73637C18.7543 5.20181 19.4506 4.53475 20 3.77546C19.2648 4.07717 18.4735 4.28 17.6436 4.37176C18.4907 3.90278 19.1412 3.16122 19.4479 2.27721C18.6551 2.71097 17.777 3.02611 16.8424 3.19632C16.0936 2.46029 15.0274 2 13.847 2C11.5811 2 9.74346 3.69577 9.74346 5.78615C9.74346 6.08345 9.77954 6.3724 9.84987 6.64961C6.43954 6.49125 3.41534 4.98454 1.39175 2.69325C1.0395 3.25276 0.836223 3.90289 0.836223 4.5966C0.836223 5.91019 1.56066 7.07017 2.66217 7.74852C1.98898 7.72945 1.35665 7.5589 0.803811 7.27503C0.8032 7.29094 0.8032 7.30641 0.8032 7.32334C0.8032 9.15727 2.21757 10.6885 4.09538 11.0354C3.75047 11.122 3.38758 11.1686 3.01331 11.1686C2.74937 11.1686 2.49203 11.1447 2.24204 11.1003C2.76442 12.6049 4.27933 13.6998 6.07531 13.7305C4.67084 14.7463 2.90165 15.3514 0.978835 15.3514C0.648112 15.3514 0.321182 15.3339 0 15.2989C1.81604 16.3731 3.97246 17 6.28996 17" fill="white"/>
</svg>
