<svg width="20" height="19" viewBox="0 0 20 19" fill="none" xmlns="http://www.w3.org/2000/svg">
<path d="M19.2125 14.4148C19.0467 15.6808 18.4267 16.8435 17.4679 17.6867C16.5092 18.53 15.2768 18.9963 14 18.9992C6.55625 18.9992 0.5 12.9429 0.5 5.49915C0.502815 4.22233 0.969194 2.98998 1.81243 2.03121C2.65566 1.07244 3.81837 0.452501 5.08438 0.286653C5.40711 0.250869 5.73284 0.318818 6.01435 0.480644C6.29586 0.642469 6.51851 0.88976 6.65 1.18665L8.53438 5.58353C8.63212 5.81175 8.67131 6.06078 8.64839 6.308C8.62547 6.55521 8.54116 6.79279 8.40313 6.99915L6.84688 9.3804C7.55158 10.8106 8.71273 11.9651 10.1469 12.6617L12.5 11.096C12.7062 10.9571 12.9443 10.8729 13.192 10.8516C13.4397 10.8303 13.6888 10.8725 13.9156 10.9742L18.3125 12.8492C18.6094 12.9806 18.8567 13.2033 19.0185 13.4848C19.1803 13.7663 19.2483 14.092 19.2125 14.4148ZM12.2563 2.47103C13.3979 2.78292 14.4384 3.38709 15.2752 4.22391C16.1121 5.06074 16.7162 6.10129 17.0281 7.2429C17.0695 7.40318 17.1628 7.54527 17.2933 7.64702C17.4239 7.74876 17.5845 7.80445 17.75 7.8054C17.8166 7.80528 17.8829 7.79581 17.9469 7.77728C18.0422 7.75233 18.1316 7.70861 18.2098 7.64867C18.2881 7.58874 18.3535 7.51379 18.4024 7.42823C18.4513 7.34266 18.4827 7.2482 18.4946 7.15038C18.5065 7.05255 18.4988 6.95333 18.4719 6.85853C18.0969 5.46042 17.3607 4.18558 16.3371 3.16203C15.3136 2.13848 14.0387 1.40225 12.6406 1.02728C12.5428 0.991637 12.4386 0.976757 12.3347 0.983585C12.2308 0.990413 12.1295 1.0188 12.0372 1.06694C11.9448 1.11508 11.8635 1.18191 11.7985 1.26319C11.7334 1.34446 11.6859 1.4384 11.6591 1.53902C11.6324 1.63963 11.6268 1.74473 11.6429 1.8476C11.6589 1.95048 11.6962 2.04889 11.7524 2.13656C11.8086 2.22423 11.8824 2.29925 11.9691 2.35683C12.0559 2.41442 12.1536 2.45331 12.2563 2.47103ZM11.4781 5.3679C12.1127 5.54161 12.6911 5.87762 13.1563 6.34284C13.6215 6.80806 13.9575 7.38645 14.1313 8.02103C14.1712 8.18211 14.264 8.32511 14.3949 8.42711C14.5258 8.52911 14.6872 8.5842 14.8531 8.58353C14.9167 8.58415 14.98 8.57466 15.0406 8.5554C15.1368 8.53148 15.2272 8.4885 15.3065 8.42901C15.3858 8.36951 15.4523 8.29471 15.5021 8.20903C15.5519 8.12336 15.5841 8.02855 15.5966 7.93023C15.6091 7.83191 15.6018 7.73208 15.575 7.63665C15.3382 6.74557 14.8702 5.93289 14.2182 5.28093C13.5663 4.62898 12.7536 4.16091 11.8625 3.92415C11.7647 3.88851 11.6605 3.87363 11.5566 3.88046C11.4527 3.88729 11.3514 3.91568 11.259 3.96381C11.1667 4.01195 11.0854 4.07879 11.0203 4.16006C10.9553 4.24134 10.9078 4.33528 10.881 4.43589C10.8542 4.53651 10.8487 4.6416 10.8647 4.74448C10.8808 4.84735 10.9181 4.94576 10.9743 5.03343C11.0304 5.12111 11.1042 5.19612 11.191 5.25371C11.2777 5.31129 11.3755 5.35018 11.4781 5.3679Z" fill="#DE1829"/>
</svg>
