<svg width="22" height="22" viewBox="0 0 22 22" fill="none" xmlns="http://www.w3.org/2000/svg">
<path d="M19.9307 18.9062C19.8719 19.0116 19.7858 19.0991 19.6814 19.1596C19.5771 19.2201 19.4583 19.2513 19.3377 19.25H2.66582C2.5452 19.2513 2.42644 19.2201 2.32208 19.1596C2.21772 19.0991 2.13162 19.0116 2.07285 18.9062C2.00987 18.8026 1.97656 18.6837 1.97656 18.5625C1.97656 18.4412 2.00987 18.3223 2.07285 18.2187C3.35567 16.0089 5.40903 14.3503 7.83926 13.5609C6.67439 12.8682 5.76917 11.8123 5.26265 10.5552C4.75613 9.29816 4.67634 7.90958 5.03553 6.60278C5.39472 5.29599 6.17302 4.14326 7.25087 3.3217C8.32872 2.50014 9.6465 2.05518 11.0018 2.05518C12.357 2.05518 13.6748 2.50014 14.7526 3.3217C15.8305 4.14326 16.6088 5.29599 16.968 6.60278C17.3272 7.90958 17.2474 9.29816 16.7409 10.5552C16.2344 11.8123 15.3291 12.8682 14.1643 13.5609C16.5945 14.3503 18.6478 16.0089 19.9307 18.2187C19.9936 18.3223 20.027 18.4412 20.027 18.5625C20.027 18.6837 19.9936 18.8026 19.9307 18.9062Z" fill="#161618"/>
</svg>
