<svg width="20" height="20" viewBox="0 0 20 20" fill="none" xmlns="http://www.w3.org/2000/svg">
<path d="M18.6035 5.18694C18.4953 4.76346 18.2832 4.37727 17.9885 4.06702C17.6938 3.75677 17.3267 3.53335 16.924 3.41911C15.4417 3 9.5 3 9.5 3C9.5 3 3.55826 3 2.076 3.41688C1.67315 3.53075 1.30588 3.75405 1.01108 4.06436C0.716289 4.37466 0.504347 4.76105 0.39654 5.18471C-8.0892e-08 6.74522 0 10 0 10C0 10 -8.0892e-08 13.2548 0.39654 14.8131C0.614955 15.6736 1.2596 16.3513 2.076 16.5809C3.55826 17 9.5 17 9.5 17C9.5 17 15.4417 17 16.924 16.5809C17.7425 16.3513 18.385 15.6736 18.6035 14.8131C19 13.2548 19 10 19 10C19 10 19 6.74522 18.6035 5.18694ZM7.61272 12.9873V7.01274L12.5324 9.97771L7.61272 12.9873Z" fill="white"/>
</svg>
