<svg width="20" height="20" viewBox="0 0 20 20" fill="none" xmlns="http://www.w3.org/2000/svg">
<g clip-path="url(#clip0_713_203)">
<path d="M19.3346 19.3346L14.0013 14.0013M8.66797 16.668C7.61739 16.668 6.57711 16.461 5.6065 16.059C4.6359 15.657 3.75398 15.0677 3.01111 14.3248C2.26825 13.582 1.67897 12.7 1.27693 11.7294C0.874895 10.7588 0.667969 9.71854 0.667969 8.66797C0.667969 7.61739 0.874895 6.57711 1.27693 5.6065C1.67897 4.6359 2.26825 3.75398 3.01111 3.01111C3.75398 2.26825 4.6359 1.67897 5.6065 1.27693C6.57711 0.874895 7.61739 0.667969 8.66797 0.667969C10.7897 0.667969 12.8245 1.51082 14.3248 3.01111C15.8251 4.51141 16.668 6.54624 16.668 8.66797C16.668 10.7897 15.8251 12.8245 14.3248 14.3248C12.8245 15.8251 10.7897 16.668 8.66797 16.668Z" stroke="#DE1829"/>
</g>
<defs>
<clipPath id="clip0_713_203">
<rect width="20" height="20" fill="white"/>
</clipPath>
</defs>
</svg>
