<?xml version="1.0" encoding="utf-8"?><svg viewBox="0 0 74 80" xmlns="http://www.w3.org/2000/svg" xmlns:xlink="http://www.w3.org/1999/xlink"><style>:root>svg{display:none}:root>svg:target{display:block}</style><svg viewBox="0 0 17 16" id="date" xmlns="http://www.w3.org/2000/svg"><path d="M3.643 1c0-.552.542-1 1.214-1 .672 0 1.214.448 1.214 1v1h4.858V1c0-.552.542-1 1.214-1 .671 0 1.214.448 1.214 1v1h1.822C16.184 2 17 2.672 17 3.5V5H0V3.5C0 2.672.815 2 1.821 2h1.822V1zM17 14.5c0 .828-.816 1.5-1.821 1.5H1.82C.815 16 0 15.328 0 14.5V6h17v8.5z"/></svg><svg viewBox="0 0 74 80" id="file" xmlns="http://www.w3.org/2000/svg"><g clip-path="url(#ba)"><path d="M60.644 77.926V37.823c0-1.07-.848-1.96-1.913-1.96-1.064 0-1.912.868-1.912 1.96v38.165H4.145V17.504h32.856c1.044 0 1.913-.87 1.913-1.96 0-1.092-.848-1.961-1.913-1.961l-34.769-.001c-1.043 0-1.912.87-1.912 1.96v62.384c0 1.07.848 1.96 1.912 1.96H58.73c1.044.001 1.913-.89 1.913-1.96zm11.126-64.32H60.622V2.177c0-1.07-.848-1.96-1.912-1.96-1.066 0-1.87.89-1.87 1.96v11.43H45.694c-1.043 0-1.912.868-1.912 1.96 0 1.091.848 1.96 1.912 1.96h11.148v11.386c0 1.07.847 1.96 1.912 1.96 1.064 0 1.912-.869 1.912-1.96v-11.43H71.77c1.043 0 1.912-.869 1.912-1.96 0-1.092-.87-1.917-1.912-1.917z"/></g><defs><clipPath id="ba"><path d="M0 0h74v80H0z"/></clipPath></defs></svg><svg viewBox="0 0 20 20" id="instagram" xmlns="http://www.w3.org/2000/svg"><path d="M18.945 6.018a6.144 6.144 0 00-.395-2.089 4.344 4.344 0 00-2.486-2.481A6.245 6.245 0 0014 1.052C13.092 1.012 12.804 1 10.5 1c-2.306 0-2.602 0-3.503.052a6.245 6.245 0 00-2.063.396 4.35 4.35 0 00-2.486 2.481 6.168 6.168 0 00-.395 2.06C2.013 6.895 2 7.182 2 9.484c0 2.301 0 2.595.053 3.496.014.705.147 1.4.395 2.062a4.344 4.344 0 002.487 2.48 6.204 6.204 0 002.063.424c.909.04 1.197.053 3.502.053 2.305 0 2.6 0 3.502-.053a6.228 6.228 0 002.064-.395 4.357 4.357 0 002.486-2.481 6.2 6.2 0 00.395-2.061c.04-.907.053-1.194.053-3.497-.002-2.301-.002-2.593-.055-3.495zm-8.452 7.82A4.36 4.36 0 016.13 9.48a4.36 4.36 0 014.364-4.357 4.37 4.37 0 013.086 1.276 4.353 4.353 0 010 6.162 4.368 4.368 0 01-3.086 1.276zm4.538-7.86a1.018 1.018 0 01-1.017-1.016 1.014 1.014 0 011.017-1.015 1.019 1.019 0 011.017 1.015c0 .562-.455 1.016-1.017 1.016z"/><path d="M10.5 12a2.5 2.5 0 100-5 2.5 2.5 0 000 5z"/></svg><svg viewBox="0 0 22 22" id="mail" xmlns="http://www.w3.org/2000/svg"><path d="M3.67 18.333c-.505 0-.936-.18-1.295-.538a1.766 1.766 0 01-.54-1.295v-11c0-.504.18-.936.54-1.295.359-.359.79-.538 1.294-.538h14.667c.504 0 .936.18 1.295.538.359.36.538.79.538 1.295v11c0 .504-.18.936-.538 1.295-.36.359-.79.538-1.295.538H3.669zm7.333-6.577a.945.945 0 00.481-.137l6.485-4.057a.759.759 0 00.367-.664.747.747 0 00-.39-.688c-.26-.153-.527-.145-.802.023l-6.141 3.85-6.142-3.85c-.275-.168-.542-.172-.802-.012-.26.161-.39.386-.39.677 0 .153.03.286.092.4a.612.612 0 00.275.264l6.485 4.057a.943.943 0 00.482.137z"/></svg><svg viewBox="0 0 21 27" id="map" xmlns="http://www.w3.org/2000/svg"><g clip-path="url(#ea)"><path d="M10.511 6.07c-.906 0-1.793.266-2.547.767A4.56 4.56 0 006.276 8.88a4.527 4.527 0 00.994 4.963 4.612 4.612 0 004.996.987 4.577 4.577 0 002.057-1.677 4.533 4.533 0 00-.57-5.75 4.6 4.6 0 00-3.242-1.335zm0 7.67c-.62 0-1.226-.183-1.742-.526a3.12 3.12 0 01-1.155-1.398 3.097 3.097 0 01.68-3.396 3.155 3.155 0 013.418-.675 3.132 3.132 0 011.407 1.147c.345.513.529 1.115.529 1.732a3.117 3.117 0 01-.922 2.2 3.16 3.16 0 01-2.215.916zm0-13.424A10.421 10.421 0 003.18 3.34a10.285 10.285 0 00-3.042 7.285c0 3.703 1.737 7.634 5.006 11.373a29.82 29.82 0 004.958 4.555c.12.084.263.13.41.132a.8.8 0 00.423-.132 30.588 30.588 0 004.946-4.555c3.28-3.739 5.006-7.67 5.006-11.373a10.285 10.285 0 00-3.042-7.285A10.42 10.42 0 0010.51.316zm0 24.75c-1.81-1.39-8.927-7.3-8.927-14.442A8.84 8.84 0 014.2 4.352a8.957 8.957 0 016.312-2.597 8.96 8.96 0 016.313 2.597 8.84 8.84 0 012.614 6.272c0 7.143-7.117 13.051-8.927 14.442z"/></g><defs><clipPath id="ea"><path d="M0 0h21v27H0z"/></clipPath></defs></svg><svg viewBox="0 0 16 20" id="map2" xmlns="http://www.w3.org/2000/svg"><path d="M8 0C3.8 0 0 3.22 0 8.2c0 3.18 2.45 6.92 7.34 11.23.38.33.95.33 1.33 0C13.55 15.12 16 11.38 16 8.2 16 3.22 12.2 0 8 0zm0 10c-1.1 0-2-.9-2-2s.9-2 2-2 2 .9 2 2-.9 2-2 2z"/></svg><svg viewBox="0 0 19 19" id="phone" xmlns="http://www.w3.org/2000/svg"><path d="M8.034 10.893a10.751 10.751 0 003.905 2.528l1.99-1.583a.354.354 0 01.401 0l3.694 2.38a1.056 1.056 0 01.175 1.679l-1.732 1.71a2.111 2.111 0 01-1.915.564 18.52 18.52 0 01-9.052-4.75A17.834 17.834 0 01.608 4.54a1.995 1.995 0 01.58-1.874L2.983.935a1.056 1.056 0 011.646.168L7.09 4.75a.333.333 0 010 .396L5.47 7.093a10.423 10.423 0 002.565 3.8z"/></svg><svg viewBox="0 0 20 19" id="phone2" xmlns="http://www.w3.org/2000/svg"><path d="M19.212 14.415A5.268 5.268 0 0114 18.999C6.556 19 .5 12.943.5 5.5A5.269 5.269 0 015.084.287a1.528 1.528 0 011.566.9l1.884 4.397a1.49 1.49 0 01-.13 1.415L6.846 9.38a7.172 7.172 0 003.3 3.282l2.353-1.566a1.463 1.463 0 011.416-.122l4.396 1.875a1.527 1.527 0 01.9 1.566zM12.256 2.47a6.806 6.806 0 014.772 4.772.75.75 0 00.722.562c.067 0 .133-.01.197-.028a.74.74 0 00.525-.918 8.25 8.25 0 00-5.831-5.832.75.75 0 10-.385 1.444zm-.778 2.897a3.787 3.787 0 012.653 2.653.74.74 0 00.722.563.6.6 0 00.188-.029.741.741 0 00.534-.918 5.231 5.231 0 00-3.712-3.713.75.75 0 10-.385 1.444z"/></svg><svg viewBox="0 0 35 61" id="scrollTo" xmlns="http://www.w3.org/2000/svg"><path d="M32.19 46.817c1.23 0 2.224-.994 2.224-2.224V16.208C34.414 7.266 26.718 0 17.272 0 7.825 0 .129 7.281.129 16.208v28.37c0 8.941 7.697 16.208 17.143 16.208a17.81 17.81 0 007.252-1.513c1.126-.49 1.63-1.81 1.142-2.936-.49-1.127-1.81-1.631-2.937-1.142a13.388 13.388 0 01-5.457 1.142c-7 0-12.693-5.279-12.693-11.76V16.21c0-6.496 5.694-11.76 12.693-11.76 7 0 12.693 5.279 12.693 11.76v28.369c0 1.23.994 2.24 2.225 2.24z" fill-opacity=".1"/></svg><svg viewBox="0 0 20 20" id="search" xmlns="http://www.w3.org/2000/svg"><path d="M19.335 19.335L14 14m-5.333 2.667a8 8 0 110-16.002 8 8 0 010 16.002z"/></svg><svg viewBox="0 0 20 20" id="telegram" xmlns="http://www.w3.org/2000/svg"><path d="M8.063 11.886l-.298 4.188c.426 0 .61-.183.832-.403l1.997-1.909 4.139 3.031c.759.423 1.294.2 1.498-.698l2.717-12.729c.242-1.123-.405-1.561-1.145-1.286L1.836 8.193c-1.09.423-1.074 1.03-.186 1.306l4.083 1.27 9.482-5.934c.447-.295.852-.132.518.164l-7.67 6.887z"/></svg><svg viewBox="0 0 18 18" id="time" xmlns="http://www.w3.org/2000/svg"><path d="M18 9A9 9 0 110 9a9 9 0 0118 0zM9 3.937a.563.563 0 10-1.125 0v6.188a.563.563 0 00.284.488l3.937 2.25a.562.562 0 00.558-.976L9 9.799V3.938z"/></svg><svg viewBox="0 0 20 20" id="twitter" xmlns="http://www.w3.org/2000/svg"><path d="M6.29 17c7.547 0 11.675-5.77 11.675-10.774 0-.164-.004-.327-.012-.49A8.024 8.024 0 0020 3.776a8.726 8.726 0 01-2.356.596c.847-.47 1.497-1.21 1.804-2.095a8.659 8.659 0 01-2.606.92C16.094 2.46 15.027 2 13.847 2c-2.266 0-4.104 1.696-4.104 3.786 0 .297.037.586.107.864-3.41-.159-6.435-1.665-8.458-3.957a3.558 3.558 0 00-.556 1.904c0 1.313.725 2.473 1.826 3.152a4.334 4.334 0 01-1.858-.474v.048c0 1.834 1.414 3.365 3.291 3.712a4.441 4.441 0 01-1.853.065c.522 1.505 2.037 2.6 3.833 2.63-1.404 1.016-3.173 1.621-5.096 1.621A9.05 9.05 0 010 15.299 12.33 12.33 0 006.29 17"/></svg><svg viewBox="0 0 22 22" id="user" xmlns="http://www.w3.org/2000/svg"><path d="M19.93 18.906a.67.67 0 01-.592.344H2.666a.67.67 0 01-.593-.344.662.662 0 010-.687 10.373 10.373 0 015.766-4.658 6.187 6.187 0 116.325 0c2.43.79 4.484 2.448 5.767 4.658a.663.663 0 010 .687z"/></svg><svg viewBox="0 0 20 20" id="youtube" xmlns="http://www.w3.org/2000/svg"><path d="M18.604 5.187a2.537 2.537 0 00-.616-1.12 2.357 2.357 0 00-1.064-.648C15.442 3 9.5 3 9.5 3s-5.942 0-7.424.417c-.403.114-.77.337-1.065.647-.295.31-.507.697-.614 1.12C0 6.746 0 10 0 10s0 3.255.397 4.813c.218.86.863 1.538 1.679 1.768C3.558 17 9.5 17 9.5 17s5.942 0 7.424-.42c.819-.229 1.461-.906 1.68-1.767C19 13.255 19 10 19 10s0-3.255-.396-4.813zm-10.991 7.8V7.013l4.92 2.965-4.92 3.01z"/></svg></svg>